# xmcd
#
# Track frame offsets:
#	150
#	12830
#	26978
#	43195
#	59860
#	75132
#	89987
#	103412
#	118483
#	138324
#
# Disc length: 2005 seconds
#
# Revision: 1
# Processed by: cddbd v1.5.2PL0 Copyright (c) Steve Scherf et al.
# Submitted via: audiograbber 1.83.01
#
DISCID=9507d30a
DTITLE=Hank Williams, Jr. - Born To Boogie
DYEAR=1987
DGENRE=Country
TTITLE0=Born To Boogie
TTITLE1=Honky Tonk Women
TTITLE2=Young Country
TTITLE3=Keep Your Hands To Yourself
TTITLE4=Buck Naked
TTITLE5=Heaven Can't Be Found
TTITLE6=Thank's a lot
TTITLE7=What It Boils Down To
TTITLE8=Shadow Face
TTITLE9=Practice what I preach
EXTD=
EXTT0=
EXTT1=
EXTT2=
EXTT3=
EXTT4=
EXTT5=
EXTT6=
EXTT7=
EXTT8=
EXTT9=
PLAYORDER=
